<svg width="43" height="43" viewBox="0 0 43 43" fill="none" xmlns="http://www.w3.org/2000/svg">
<rect x="0.912109" y="0.712402" width="42" height="42" rx="21" fill="#5b6b6e" id="id_107"></rect>
<path d="M31.0996 26.9624H12.7246C11.9371 26.9624 11.4121 26.4374 11.4121 25.6499C11.4121 24.8624 11.9371 24.3374 12.7246 24.3374H31.0996C31.8871 24.3374 32.4121 24.8624 32.4121 25.6499C32.4121 26.4374 31.8871 26.9624 31.0996 26.9624ZM31.0996 19.0874H12.7246C11.9371 19.0874 11.4121 18.5624 11.4121 17.7749C11.4121 16.9874 11.9371 16.4624 12.7246 16.4624H31.0996C31.8871 16.4624 32.4121 16.9874 32.4121 17.7749C32.4121 18.5624 31.8871 19.0874 31.0996 19.0874Z" fill="white" id="id_108"></path>
</svg>